<svg xmlns="http://www.w3.org/2000/svg" width="48.167" height="31.308" viewBox="0 0 48.167 31.308">
  <g id="Logo">
    <rect id="Rectangle_97" data-name="Rectangle 97" width="48.167" height="31.308" transform="translate(0 0)" fill="#010101"/>
    <path id="Path_453" data-name="Path 453" d="M24.348,24v2.17H25.7V24h1.148v5.7H25.7V27.172H24.348V29.7H23.2V24Z" transform="translate(-18.609 -19.346)" fill="#fff"/>
    <path id="Path_454" data-name="Path 454" d="M45.19,27.986a2.4,2.4,0,0,0,.021.4,1.1,1.1,0,0,0,.1.313.5.5,0,0,0,.209.209.786.786,0,0,0,.334.083.529.529,0,0,0,.334-.083A.663.663,0,0,0,46.4,28.7a1.1,1.1,0,0,0,.1-.313,2.4,2.4,0,0,0,.021-.4V24h1.148v3.986a2.244,2.244,0,0,1-.146.9,1.425,1.425,0,0,1-.417.563,1.254,1.254,0,0,1-.584.271,3.518,3.518,0,0,1-.689.063,3.842,3.842,0,0,1-.689-.063,1.463,1.463,0,0,1-.584-.25,1.33,1.33,0,0,1-.417-.563A2.4,2.4,0,0,1,44,27.965V24h1.148l.042,3.986Z" transform="translate(-35.105 -19.346)" fill="#fff"/>
    <path id="Path_455" data-name="Path 455" d="M66.911,24l.814,4.028h.021L68.581,24h1.69v5.7H69.228V25.148h-.021L68.184,29.7h-.9l-1-4.549h-.021V29.7H65.2V24Z" transform="translate(-51.901 -19.346)" fill="#fff"/>
    <path id="Path_456" data-name="Path 456" d="M94.443,24l1.5,5.7h-1.19l-.271-1.21H92.961L92.69,29.7H91.5L93.023,24ZM94.3,27.548l-.543-2.567h-.021l-.563,2.567Z" transform="translate(-72.735 -19.346)" fill="#fff"/>
    <path id="Path_457" data-name="Path 457" d="M117.513,27.9h0V24h1.064v5.7h-1.315l-1.4-3.986h-.021V29.7H114.8V24h1.315Z" transform="translate(-91.192 -19.346)" fill="#fff"/>
    <rect id="Rectangle_98" data-name="Rectangle 98" width="1.148" height="5.697" transform="translate(28.228 4.654)" fill="#fff"/>
    <path id="Path_458" data-name="Path 458" d="M148.831,24.939H147.6V29.7h-1.169V24.939H145.2V24h3.631Z" transform="translate(-115.274 -19.346)" fill="#fff"/>
    <rect id="Rectangle_99" data-name="Rectangle 99" width="1.148" height="5.697" transform="translate(34.111 4.654)" fill="#fff"/>
    <path id="Path_459" data-name="Path 459" d="M178.093,24.939h-2.045v1.336h1.92v.96h-1.92v1.523h2.108V29.7H174.9V24h3.193Z" transform="translate(-138.8 -19.346)" fill="#fff"/>
    <path id="Path_460" data-name="Path 460" d="M193.585,27.536a1.839,1.839,0,0,0,.042.355.547.547,0,0,0,.125.271.592.592,0,0,0,.23.167,1.011,1.011,0,0,0,.376.063.836.836,0,0,0,.48-.167.608.608,0,0,0,.209-.522,1.622,1.622,0,0,0-.042-.334.873.873,0,0,0-.167-.25,1.169,1.169,0,0,0-.313-.209,3.859,3.859,0,0,0-.48-.188c-.25-.083-.48-.188-.668-.271a2.054,2.054,0,0,1-.459-.355,1.364,1.364,0,0,1-.271-.48,1.9,1.9,0,0,1-.083-.626,1.651,1.651,0,0,1,.48-1.273,1.926,1.926,0,0,1,1.294-.417,2.547,2.547,0,0,1,.71.083,1.763,1.763,0,0,1,.563.271,1.425,1.425,0,0,1,.376.48,1.729,1.729,0,0,1,.125.71v.167H195a1.07,1.07,0,0,0-.146-.626.54.54,0,0,0-.48-.23.7.7,0,0,0-.313.063.749.749,0,0,0-.209.146.653.653,0,0,0-.1.209,1.016,1.016,0,0,0-.021.25.906.906,0,0,0,.1.438,1.009,1.009,0,0,0,.48.334l.9.376a4.251,4.251,0,0,1,.543.292,1.268,1.268,0,0,1,.334.334.95.95,0,0,1,.167.4,3.424,3.424,0,0,1,.042.48,1.546,1.546,0,0,1-.522,1.315,2.339,2.339,0,0,1-1.461.417,2,2,0,0,1-1.4-.417,1.7,1.7,0,0,1-.417-1.21v-.23h1.148v.188Z" transform="translate(-152.764 -18.792)" fill="#fff"/>
    <path id="Path_461" data-name="Path 461" d="M170.043,103.9l1.5,5.7h-1.19l-.271-1.21h-1.523l-.271,1.21H167.1l1.5-5.7Zm-.167,3.548-.543-2.567h-.021l-.543,2.567Z" transform="translate(-132.625 -82.693)" fill="#fff"/>
    <path id="Path_462" data-name="Path 462" d="M194.1,103.9a3.093,3.093,0,0,1,.647.063,1.326,1.326,0,0,1,.522.23,1.169,1.169,0,0,1,.334.438,1.692,1.692,0,0,1,.125.689,1.363,1.363,0,0,1-.209.793,1.157,1.157,0,0,1-.647.459v.021a1.136,1.136,0,0,1,.751.417,1.415,1.415,0,0,1,.271.918,2.2,2.2,0,0,1-.083.647,1.413,1.413,0,0,1-.292.522,1.632,1.632,0,0,1-.543.355,2.393,2.393,0,0,1-.835.146H192.2v-5.7Zm-.438,2.337a1.318,1.318,0,0,0,.71-.167.7.7,0,0,0,.23-.584.715.715,0,0,0-.209-.584.978.978,0,0,0-.626-.167h-.417v1.5Zm.125,2.525a1.1,1.1,0,0,0,.668-.188.813.813,0,0,0,.25-.689,1.255,1.255,0,0,0-.063-.417.794.794,0,0,0-.188-.271,1.124,1.124,0,0,0-.271-.146.976.976,0,0,0-.355-.042h-.5v1.711l.459.042Z" transform="translate(-152.527 -82.693)" fill="#fff"/>
    <path id="Path_463" data-name="Path 463" d="M148.1,103.9h1.148v4.758h2.045v.939H148.1Z" transform="translate(-117.57 -82.693)" fill="#fff"/>
    <path id="Path_464" data-name="Path 464" d="M100.943,63.9l1.5,5.7h-1.19l-.271-1.21H99.461L99.19,69.6H98l1.5-5.7Zm-.146,3.569-.543-2.567h-.021l-.563,2.567Z" transform="translate(-77.885 -50.981)" fill="#fff"/>
    <path id="Path_465" data-name="Path 465" d="M123.279,64.527a.561.561,0,0,0-.543-.292.491.491,0,0,0-.355.125,1.054,1.054,0,0,0-.23.376,2.662,2.662,0,0,0-.1.689c-.021.271-.042.626-.042,1.023,0,.438.021.772.042,1.043a1.973,1.973,0,0,0,.146.626.574.574,0,0,0,.23.292.786.786,0,0,0,.334.083,1.409,1.409,0,0,0,.292-.042.541.541,0,0,0,.23-.209,1.528,1.528,0,0,0,.146-.438,3.6,3.6,0,0,0,.063-.751h1.148a5.773,5.773,0,0,1-.063.876,2.04,2.04,0,0,1-.271.73,1.215,1.215,0,0,1-.543.48,2.256,2.256,0,0,1-.918.167,2.019,2.019,0,0,1-1.023-.209,1.366,1.366,0,0,1-.584-.605,2.373,2.373,0,0,1-.271-.939,10.508,10.508,0,0,1-.063-1.19,10.246,10.246,0,0,1,.063-1.19,2.6,2.6,0,0,1,.271-.939,1.626,1.626,0,0,1,.584-.605,2.06,2.06,0,0,1,1.023-.23,1.9,1.9,0,0,1,.981.209,1.214,1.214,0,0,1,.522.5,1.814,1.814,0,0,1,.23.668c.021.23.042.459.042.668h-1.19A2.306,2.306,0,0,0,123.279,64.527Z" transform="translate(-96.024 -50.585)" fill="#fff"/>
    <path id="Path_466" data-name="Path 466" d="M144.052,64.839H142.8v4.779h-1.148V64.839H140.4V63.9h3.652Z" transform="translate(-111.471 -50.981)" fill="#fff"/>
    <rect id="Rectangle_100" data-name="Rectangle 100" width="1.148" height="5.697" transform="translate(33.113 12.919)" fill="#fff"/>
    <path id="Path_467" data-name="Path 467" d="M169.563,65.174a2.6,2.6,0,0,1,.271-.939,1.627,1.627,0,0,1,.584-.605,2.392,2.392,0,0,1,2.045,0,1.481,1.481,0,0,1,.584.605,2.6,2.6,0,0,1,.271.939,10.787,10.787,0,0,1,.063,1.19,10.253,10.253,0,0,1-.063,1.19,2.6,2.6,0,0,1-.271.939,1.365,1.365,0,0,1-.584.605,2.61,2.61,0,0,1-2.045,0,1.366,1.366,0,0,1-.584-.605,2.373,2.373,0,0,1-.271-.939,10.512,10.512,0,0,1-.063-1.19A10.25,10.25,0,0,1,169.563,65.174Zm1.127,2.17a3.8,3.8,0,0,0,.1.647,1.054,1.054,0,0,0,.23.376.623.623,0,0,0,.417.125.662.662,0,0,0,.417-.125.682.682,0,0,0,.23-.376,2.457,2.457,0,0,0,.1-.647c.021-.271.021-.605.021-.981s0-.71-.021-.981a3.8,3.8,0,0,0-.1-.647.682.682,0,0,0-.23-.376.758.758,0,0,0-.835,0,.682.682,0,0,0-.23.376,4.192,4.192,0,0,0-.1.647c-.021.271-.021.584-.021.981C170.669,66.739,170.669,67.073,170.69,67.344Z" transform="translate(-134.525 -50.585)" fill="#fff"/>
    <path id="Path_468" data-name="Path 468" d="M194.113,67.8h.021V63.9H195.2v5.718h-1.315l-1.419-4.007h0v4.007H191.4V63.9h1.336Z" transform="translate(-151.893 -50.981)" fill="#fff"/>
  </g>
</svg>
