<svg xmlns="http://www.w3.org/2000/svg" width="467.663" height="65.757" viewBox="0 0 467.663 65.757">
  <path id="Union_6" data-name="Union 6" d="M12616.926-8033.731a4.917,4.917,0,0,1-1.688-1.3,5.566,5.566,0,0,1-1.008-1.889,7.5,7.5,0,0,1-.335-2.256,7.519,7.519,0,0,1,.335-2.256,5.629,5.629,0,0,1,1.008-1.9,4.86,4.86,0,0,1,1.688-1.312,5.4,5.4,0,0,1,2.361-.488,5.27,5.27,0,0,1,1.59.243,4.622,4.622,0,0,1,1.41.712,4.123,4.123,0,0,1,1.054,1.158,3.862,3.862,0,0,1,.536,1.583h-1.089a3.624,3.624,0,0,0-.472-1.174,3.17,3.17,0,0,0-.8-.872,3.523,3.523,0,0,0-1.041-.536,3.8,3.8,0,0,0-1.19-.185,4.123,4.123,0,0,0-1.953.431,3.887,3.887,0,0,0-1.337,1.146,4.981,4.981,0,0,0-.769,1.608,6.945,6.945,0,0,0-.246,1.838,6.988,6.988,0,0,0,.246,1.832,4.962,4.962,0,0,0,.769,1.618,3.879,3.879,0,0,0,1.337,1.143,4.123,4.123,0,0,0,1.953.434,3.475,3.475,0,0,0,1.439-.291,3.451,3.451,0,0,0,1.1-.782,4.076,4.076,0,0,0,.75-1.162,4.771,4.771,0,0,0,.367-1.433h1.092a6.261,6.261,0,0,1-.5,1.905,4.654,4.654,0,0,1-.993,1.439,4.183,4.183,0,0,1-1.433.913,5,5,0,0,1-1.829.319A5.39,5.39,0,0,1,12616.926-8033.731Zm-32.5.258a4.028,4.028,0,0,1-1.472-.715,3.1,3.1,0,0,1-.936-1.232,4.015,4.015,0,0,1-.28-1.806h1.088a3.186,3.186,0,0,0,.271,1.471,2.414,2.414,0,0,0,.792.945,3.333,3.333,0,0,0,1.193.5,6.7,6.7,0,0,0,1.471.153,4.126,4.126,0,0,0,.977-.131,3.371,3.371,0,0,0,.983-.405,2.526,2.526,0,0,0,.76-.721,1.813,1.813,0,0,0,.3-1.062,1.555,1.555,0,0,0-.214-.833,1.955,1.955,0,0,0-.562-.594,3.325,3.325,0,0,0-.76-.393,7.739,7.739,0,0,0-.816-.246l-2.544-.625a7.37,7.37,0,0,1-.967-.319,2.679,2.679,0,0,1-.823-.511,2.41,2.41,0,0,1-.568-.785,2.691,2.691,0,0,1-.217-1.136,3.667,3.667,0,0,1,.159-.977,2.749,2.749,0,0,1,.6-1.057,3.529,3.529,0,0,1,1.21-.839,4.835,4.835,0,0,1,1.969-.345,5.833,5.833,0,0,1,1.615.224,4.006,4.006,0,0,1,1.344.673,3.355,3.355,0,0,1,.919,1.114,3.29,3.29,0,0,1,.345,1.542h-1.088a2.676,2.676,0,0,0-.3-1.143,2.582,2.582,0,0,0-.687-.817,3.059,3.059,0,0,0-.977-.495,3.975,3.975,0,0,0-1.162-.169,4.8,4.8,0,0,0-1.078.122,2.71,2.71,0,0,0-.913.383,2.028,2.028,0,0,0-.632.7,2.188,2.188,0,0,0-.239,1.072,1.617,1.617,0,0,0,.138.7,1.438,1.438,0,0,0,.376.5,1.877,1.877,0,0,0,.553.335,3.88,3.88,0,0,0,.663.208l2.783.689a7.662,7.662,0,0,1,1.143.393,3.7,3.7,0,0,1,.944.575,2.48,2.48,0,0,1,.642.839,2.858,2.858,0,0,1,.229,1.2,4.555,4.555,0,0,1-.038.511,2.7,2.7,0,0,1-.191.68,3.355,3.355,0,0,1-.434.728,2.743,2.743,0,0,1-.767.664,4.456,4.456,0,0,1-1.209.482,7.111,7.111,0,0,1-1.727.182A7.264,7.264,0,0,1,12584.422-8033.473Zm-13.976-.115a3.664,3.664,0,0,1-1.376-.935,3.649,3.649,0,0,1-.784-1.382,5.566,5.566,0,0,1-.249-1.672v-7.312h1.088v7.069a5.6,5.6,0,0,0,.224,1.688,2.831,2.831,0,0,0,.657,1.136,2.529,2.529,0,0,0,1.057.641,4.561,4.561,0,0,0,1.407.2,4.616,4.616,0,0,0,1.423-.2,2.523,2.523,0,0,0,1.057-.641,2.831,2.831,0,0,0,.657-1.136,5.6,5.6,0,0,0,.224-1.688v-7.069h1.088v7.312a5.565,5.565,0,0,1-.248,1.672,3.664,3.664,0,0,1-.785,1.382,3.664,3.664,0,0,1-1.376.935,5.359,5.359,0,0,1-2.039.345A5.32,5.32,0,0,1,12570.446-8033.587Zm-12.728.016a2.53,2.53,0,0,1-.977-.862,3.3,3.3,0,0,1-.481-1.241,8.342,8.342,0,0,1-.128-1.456h1.088c.013.246.026.54.048.881a2.992,2.992,0,0,0,.227.977,1.862,1.862,0,0,0,.632.792,2.138,2.138,0,0,0,1.286.329,2.847,2.847,0,0,0,1.057-.169,1.392,1.392,0,0,0,.657-.53,2.363,2.363,0,0,0,.336-.919,8.129,8.129,0,0,0,.1-1.343v-7.774h1.088v8.237a5.89,5.89,0,0,1-.176,1.522,2.482,2.482,0,0,1-.567,1.057,2.4,2.4,0,0,1-1.024.622,5,5,0,0,1-1.562.208A3.4,3.4,0,0,1,12557.719-8033.571Zm-115.082-.16a4.945,4.945,0,0,1-1.688-1.3,5.635,5.635,0,0,1-1.008-1.889,7.5,7.5,0,0,1-.336-2.256,7.52,7.52,0,0,1,.336-2.256,5.7,5.7,0,0,1,1.008-1.9,4.887,4.887,0,0,1,1.688-1.312,5.406,5.406,0,0,1,2.361-.488,5.357,5.357,0,0,1,2.353.488,4.887,4.887,0,0,1,1.679,1.312,5.648,5.648,0,0,1,1.009,1.9,7.55,7.55,0,0,1,.335,2.256,7.534,7.534,0,0,1-.335,2.256,5.585,5.585,0,0,1-1.009,1.889,4.945,4.945,0,0,1-1.679,1.3,5.35,5.35,0,0,1-2.353.488A5.4,5.4,0,0,1,12442.637-8033.731Zm.408-10.04a3.877,3.877,0,0,0-1.334,1.146,4.941,4.941,0,0,0-.769,1.608,6.829,6.829,0,0,0-.249,1.838,6.87,6.87,0,0,0,.249,1.832,4.923,4.923,0,0,0,.769,1.618,3.869,3.869,0,0,0,1.334,1.143,4.131,4.131,0,0,0,1.953.434,4.084,4.084,0,0,0,1.944-.434,3.9,3.9,0,0,0,1.327-1.143,4.925,4.925,0,0,0,.77-1.618,7.032,7.032,0,0,0,.249-1.832,6.988,6.988,0,0,0-.249-1.838,4.943,4.943,0,0,0-.77-1.608,3.908,3.908,0,0,0-1.327-1.146,4.083,4.083,0,0,0-1.944-.431A4.131,4.131,0,0,0,12443.045-8043.771Zm-95.368,10.04a4.945,4.945,0,0,1-1.688-1.3,5.543,5.543,0,0,1-1-1.889,7.413,7.413,0,0,1-.339-2.256,7.429,7.429,0,0,1,.339-2.256,5.605,5.605,0,0,1,1-1.9,4.887,4.887,0,0,1,1.688-1.312,5.406,5.406,0,0,1,2.361-.488,5.348,5.348,0,0,1,2.353.488,4.887,4.887,0,0,1,1.679,1.312,5.594,5.594,0,0,1,1.008,1.9,7.519,7.519,0,0,1,.335,2.256,7.5,7.5,0,0,1-.335,2.256,5.533,5.533,0,0,1-1.008,1.889,4.945,4.945,0,0,1-1.679,1.3,5.341,5.341,0,0,1-2.353.488A5.4,5.4,0,0,1,12347.677-8033.731Zm.408-10.04a3.868,3.868,0,0,0-1.334,1.146,4.943,4.943,0,0,0-.77,1.608,6.867,6.867,0,0,0-.248,1.838,6.909,6.909,0,0,0,.248,1.832,4.925,4.925,0,0,0,.77,1.618,3.86,3.86,0,0,0,1.334,1.143,4.139,4.139,0,0,0,1.953.434,4.077,4.077,0,0,0,1.943-.434,3.894,3.894,0,0,0,1.328-1.143,4.923,4.923,0,0,0,.769-1.618,6.87,6.87,0,0,0,.249-1.832,6.829,6.829,0,0,0-.249-1.838,4.941,4.941,0,0,0-.769-1.608,3.9,3.9,0,0,0-1.328-1.146,4.077,4.077,0,0,0-1.943-.431A4.139,4.139,0,0,0,12348.085-8043.771Zm-21.647,10.3a4.008,4.008,0,0,1-1.471-.715,3.122,3.122,0,0,1-.938-1.232,4.058,4.058,0,0,1-.277-1.806h1.088a3.186,3.186,0,0,0,.271,1.471,2.42,2.42,0,0,0,.791.945,3.341,3.341,0,0,0,1.193.5,6.719,6.719,0,0,0,1.472.153,4.152,4.152,0,0,0,.977-.131,3.382,3.382,0,0,0,.983-.405,2.522,2.522,0,0,0,.759-.721,1.814,1.814,0,0,0,.3-1.062,1.555,1.555,0,0,0-.214-.833,2,2,0,0,0-.562-.594,3.366,3.366,0,0,0-.76-.393,7.686,7.686,0,0,0-.817-.246l-2.543-.625a7.289,7.289,0,0,1-.968-.319,2.7,2.7,0,0,1-.823-.511,2.407,2.407,0,0,1-.567-.785,2.691,2.691,0,0,1-.218-1.136,3.672,3.672,0,0,1,.16-.977,2.736,2.736,0,0,1,.6-1.057,3.529,3.529,0,0,1,1.21-.839,4.829,4.829,0,0,1,1.966-.345,5.838,5.838,0,0,1,1.618.224,3.978,3.978,0,0,1,1.344.673,3.366,3.366,0,0,1,.919,1.114,3.29,3.29,0,0,1,.345,1.542h-1.089a2.662,2.662,0,0,0-.3-1.143,2.579,2.579,0,0,0-.686-.817,3.059,3.059,0,0,0-.977-.495,3.994,3.994,0,0,0-1.162-.169,4.757,4.757,0,0,0-1.078.122,2.7,2.7,0,0,0-.913.383,1.981,1.981,0,0,0-.632.7,2.177,2.177,0,0,0-.239,1.072,1.632,1.632,0,0,0,.137.7,1.469,1.469,0,0,0,.374.5,2.007,2.007,0,0,0,.552.335,3.946,3.946,0,0,0,.664.208l2.786.689a7.662,7.662,0,0,1,1.143.393,3.716,3.716,0,0,1,.944.575,2.436,2.436,0,0,1,.639.839,2.812,2.812,0,0,1,.232,1.2,4.555,4.555,0,0,1-.038.511,2.632,2.632,0,0,1-.194.68,3.266,3.266,0,0,1-.432.728,2.684,2.684,0,0,1-.766.664,4.548,4.548,0,0,1-1.209.482,7.117,7.117,0,0,1-1.727.182A7.255,7.255,0,0,1,12326.438-8033.473Zm-48.056-.258a4.908,4.908,0,0,1-1.688-1.3,5.62,5.62,0,0,1-1.009-1.889,7.5,7.5,0,0,1-.335-2.256,7.519,7.519,0,0,1,.335-2.256,5.683,5.683,0,0,1,1.009-1.9,4.851,4.851,0,0,1,1.688-1.312,5.389,5.389,0,0,1,2.358-.488,5.354,5.354,0,0,1,2.354.488,4.869,4.869,0,0,1,1.679,1.312,5.631,5.631,0,0,1,1.009,1.9,7.519,7.519,0,0,1,.335,2.256,7.5,7.5,0,0,1-.335,2.256,5.568,5.568,0,0,1-1.009,1.889,4.927,4.927,0,0,1-1.679,1.3,5.347,5.347,0,0,1-2.354.488A5.383,5.383,0,0,1,12278.382-8033.731Zm.408-10.04a3.905,3.905,0,0,0-1.337,1.146,4.937,4.937,0,0,0-.767,1.608,6.829,6.829,0,0,0-.249,1.838,6.87,6.87,0,0,0,.249,1.832,4.919,4.919,0,0,0,.767,1.618,3.9,3.9,0,0,0,1.337,1.143,4.116,4.116,0,0,0,1.95.434,4.083,4.083,0,0,0,1.946-.434,3.912,3.912,0,0,0,1.328-1.143,4.917,4.917,0,0,0,.766-1.618,6.87,6.87,0,0,0,.249-1.832,6.829,6.829,0,0,0-.249-1.838,4.935,4.935,0,0,0-.766-1.608,3.92,3.92,0,0,0-1.328-1.146,4.083,4.083,0,0,0-1.946-.431A4.116,4.116,0,0,0,12278.79-8043.771Zm-26.1,10.3a4.028,4.028,0,0,1-1.472-.715,3.1,3.1,0,0,1-.936-1.232,4.015,4.015,0,0,1-.28-1.806h1.088a3.186,3.186,0,0,0,.271,1.471,2.42,2.42,0,0,0,.791.945,3.356,3.356,0,0,0,1.19.5,6.765,6.765,0,0,0,1.475.153,4.145,4.145,0,0,0,.977-.131,3.371,3.371,0,0,0,.983-.405,2.572,2.572,0,0,0,.76-.721,1.842,1.842,0,0,0,.3-1.062,1.555,1.555,0,0,0-.214-.833,1.992,1.992,0,0,0-.562-.594,3.346,3.346,0,0,0-.76-.393,7.739,7.739,0,0,0-.816-.246l-2.544-.625a7.229,7.229,0,0,1-.967-.319,2.679,2.679,0,0,1-.823-.511,2.41,2.41,0,0,1-.568-.785,2.647,2.647,0,0,1-.217-1.136,3.667,3.667,0,0,1,.159-.977,2.749,2.749,0,0,1,.6-1.057,3.529,3.529,0,0,1,1.21-.839,4.829,4.829,0,0,1,1.966-.345,5.853,5.853,0,0,1,1.618.224,4.006,4.006,0,0,1,1.344.673,3.355,3.355,0,0,1,.919,1.114,3.29,3.29,0,0,1,.345,1.542h-1.088a2.676,2.676,0,0,0-.3-1.143,2.582,2.582,0,0,0-.687-.817,3.059,3.059,0,0,0-.977-.495,3.975,3.975,0,0,0-1.162-.169,4.776,4.776,0,0,0-1.078.122,2.71,2.71,0,0,0-.913.383,1.991,1.991,0,0,0-.632.7,2.188,2.188,0,0,0-.239,1.072,1.617,1.617,0,0,0,.138.7,1.467,1.467,0,0,0,.373.5,2.022,2.022,0,0,0,.552.335,3.975,3.975,0,0,0,.664.208l2.786.689a7.662,7.662,0,0,1,1.143.393,3.7,3.7,0,0,1,.944.575,2.48,2.48,0,0,1,.642.839,2.858,2.858,0,0,1,.229,1.2,4.555,4.555,0,0,1-.038.511,2.739,2.739,0,0,1-.191.68,3.355,3.355,0,0,1-.434.728,2.743,2.743,0,0,1-.767.664,4.5,4.5,0,0,1-1.209.482,7.12,7.12,0,0,1-1.729.182A7.241,7.241,0,0,1,12252.694-8033.473Zm376.206.006v-11.422h7.889v.926h-6.8v4.129h6.37v.929h-6.37v4.509h6.881v.929Zm-21.134,0v-11.422h1.088v11.422Zm-9.424,0v-10.5h-3.968v-.926h9.038v.926h-3.982v10.5Zm-60.832,0v-11.422h1.089v10.493h6.4v.929Zm-5.409,0-1.392-3.552h-5.2l-1.379,3.552h-1.152l4.593-11.422h1.216l4.48,11.422Zm-6.255-4.48h4.5l-2.208-5.856Zm-9.875,4.48v-10.5H12512v-.926h9.042v.926h-3.986v10.5Zm-9.456,0-6.653-9.664h-.032v9.664h-1.088v-11.422h1.216l6.653,9.664h.035v-9.664h1.085v11.422Zm-20.447,0v-11.422h7.89v.926h-6.8v4.129h6.37v.929h-6.37v4.509h6.881v.929Zm-6.526,0v-9.871h-.031l-3.906,9.871h-1.021l-3.763-9.871h-.029v9.871h-1.088v-11.422h1.6l3.792,10.015,3.935-10.015h1.6v11.422Zm-16.512,0-6.657-9.664h-.032v9.664h-1.088v-11.422h1.216l6.657,9.664h.031v-9.664h1.089v11.422Zm-28.88,0a1.4,1.4,0,0,1-.152-.392,3.123,3.123,0,0,1-.08-.479c-.016-.166-.028-.329-.042-.488s-.019-.3-.031-.415c-.02-.405-.055-.811-.1-1.209a3.26,3.26,0,0,0-.307-1.072,1.869,1.869,0,0,0-.67-.759,2.021,2.021,0,0,0-1.209-.255h-4.127v5.071h-1.088v-11.422h5.23a4.913,4.913,0,0,1,1.337.176,3.146,3.146,0,0,1,1.1.536,2.6,2.6,0,0,1,.753.925,3.018,3.018,0,0,1,.278,1.337,3.222,3.222,0,0,1-.559,1.889,2.547,2.547,0,0,1-1.666,1.021v.032a2.552,2.552,0,0,1,.929.3,1.856,1.856,0,0,1,.6.552,2.254,2.254,0,0,1,.339.776,5.835,5.835,0,0,1,.134.954c.01.191.022.424.031.7s.032.559.064.839a4.922,4.922,0,0,0,.153.8,1.508,1.508,0,0,0,.28.584Zm-6.721-6h4.066a2.9,2.9,0,0,0,.941-.153,2.3,2.3,0,0,0,.784-.437,2.2,2.2,0,0,0,.537-.7,2.13,2.13,0,0,0,.2-.935,2.244,2.244,0,0,0-.609-1.663,2.524,2.524,0,0,0-1.854-.609h-4.066Zm-7.758,6v-11.422h1.085v11.422Zm-9.795,0-4.222-11.422h1.151l3.712,10.222h.032l3.68-10.222h1.151l-4.241,11.422Zm-9.68,0-6.654-9.664h-.035v9.664h-1.085v-11.422h1.216l6.654,9.664h.032v-9.664h1.088v11.422Zm-20.447,0v-11.422h7.886v.926h-6.8v4.129h6.366v.929h-6.366v4.509h6.88v.929Zm-19.442,0v-11.422h7.251v.926h-6.162v4.129h5.474v.929h-5.474v5.438Zm-48.669,0v-11.422h7.887v.926h-6.8v4.129h6.37v.929h-6.37v4.509h6.88v.929Zm-6.673,0v-11.422h1.088v11.422Zm-6.144,0a1.428,1.428,0,0,1-.153-.392,3.685,3.685,0,0,1-.079-.479c-.017-.166-.029-.329-.039-.488s-.021-.3-.035-.415c-.019-.405-.054-.811-.1-1.209a3.355,3.355,0,0,0-.3-1.072,1.905,1.905,0,0,0-.673-.759,2.019,2.019,0,0,0-1.206-.255h-4.13v5.071h-1.089v-11.422h5.234a4.912,4.912,0,0,1,1.334.176,3.13,3.13,0,0,1,1.1.536,2.6,2.6,0,0,1,.753.925,3.031,3.031,0,0,1,.281,1.337,3.218,3.218,0,0,1-.562,1.889,2.546,2.546,0,0,1-1.662,1.021v.032a2.524,2.524,0,0,1,.925.3,1.849,1.849,0,0,1,.6.552,2.252,2.252,0,0,1,.338.776,5.63,5.63,0,0,1,.134.954c.014.191.022.424.032.7s.032.559.064.839a5.258,5.258,0,0,0,.152.8,1.508,1.508,0,0,0,.281.584Zm-6.721-6h4.065a2.883,2.883,0,0,0,.941-.153,2.308,2.308,0,0,0,.785-.437,2.184,2.184,0,0,0,.536-.7,2.09,2.09,0,0,0,.2-.935,2.244,2.244,0,0,0-.609-1.663,2.525,2.525,0,0,0-1.854-.609h-4.065Zm-25.486,6v-10.5h-3.971v-.926h9.041v.926h-3.982v10.5Zm431.908-22.33a2.7,2.7,0,0,1-.852-.16v-2.438c.338.061.667.115.989.163a7.152,7.152,0,0,0,.989.067,3.946,3.946,0,0,0,1.586-.274,3.369,3.369,0,0,0,1.082-.759,4.3,4.3,0,0,0,.782-1.175c.214-.459.443-.963.689-1.516l1.012-2.668-9.476-23.645h3.083l7.818,20.24,7.315-20.24h2.9l-10.3,27.325a25.333,25.333,0,0,1-1.2,2.505,5.645,5.645,0,0,1-1.219,1.563,4.009,4.009,0,0,1-1.561.83,8.6,8.6,0,0,1-2.279.252C12699.3-8055.755,12698.846-8055.78,12698.523-8055.8Zm-101.959.07v-13.248h-.092a6.85,6.85,0,0,1-1.312,2.253,7.921,7.921,0,0,1-1.953,1.612,9.183,9.183,0,0,1-2.371.964,10.391,10.391,0,0,1-2.6.322,10.5,10.5,0,0,1-4.714-.989,9.456,9.456,0,0,1-3.338-2.713,11.624,11.624,0,0,1-1.976-4,17.54,17.54,0,0,1-.645-4.806,17.5,17.5,0,0,1,.645-4.806,11.624,11.624,0,0,1,1.976-4,9.658,9.658,0,0,1,3.338-2.738,10.293,10.293,0,0,1,4.714-1.012,9.562,9.562,0,0,1,2.6.367,10.047,10.047,0,0,1,2.461,1.06,9.688,9.688,0,0,1,2.049,1.631,6.449,6.449,0,0,1,1.356,2.142h.093v-4.509h2.668v32.476Zm-11.868-29.83a7.6,7.6,0,0,0-2.416,2.323,10.063,10.063,0,0,0-1.379,3.243,15.635,15.635,0,0,0-.437,3.657,15.675,15.675,0,0,0,.438,3.657,10.1,10.1,0,0,0,1.379,3.243,7.637,7.637,0,0,0,2.416,2.323,6.7,6.7,0,0,0,3.542.9,7.817,7.817,0,0,0,3.888-.9,7.7,7.7,0,0,0,2.575-2.323,9.547,9.547,0,0,0,1.427-3.243,15.674,15.674,0,0,0,.437-3.657,15.634,15.634,0,0,0-.437-3.657,9.517,9.517,0,0,0-1.427-3.243,7.662,7.662,0,0,0-2.575-2.323,7.781,7.781,0,0,0-3.888-.9A6.666,6.666,0,0,0,12584.7-8085.556Zm53.152,21.344a7.025,7.025,0,0,1-2.53-1.242,5.975,5.975,0,0,1-1.7-2.164,7.177,7.177,0,0,1-.622-3.105,6.152,6.152,0,0,1,1.1-3.887,6.976,6.976,0,0,1,2.92-2.138,16.606,16.606,0,0,1,4.1-1.034q2.273-.3,4.621-.575.918-.1,1.608-.233a2.755,2.755,0,0,0,1.151-.482,2.231,2.231,0,0,0,.712-.941,4.071,4.071,0,0,0,.252-1.564,5.282,5.282,0,0,0-.481-2.416,3.832,3.832,0,0,0-1.334-1.5,5.355,5.355,0,0,0-1.979-.756,13.148,13.148,0,0,0-2.413-.208,7.312,7.312,0,0,0-4.51,1.312,5.129,5.129,0,0,0-1.838,4.206h-2.9a9.7,9.7,0,0,1,.875-3.587,6.816,6.816,0,0,1,2-2.483,8.46,8.46,0,0,1,2.968-1.427,14.467,14.467,0,0,1,3.772-.459,16.473,16.473,0,0,1,3.128.3,7.514,7.514,0,0,1,2.8,1.126,6.13,6.13,0,0,1,2.026,2.324,8.379,8.379,0,0,1,.782,3.884v12.606a1.524,1.524,0,0,0,1.7,1.749,2.254,2.254,0,0,0,.919-.185v2.438c-.338.061-.635.105-.9.137a8.432,8.432,0,0,1-.989.045,4.43,4.43,0,0,1-1.771-.3,2.41,2.41,0,0,1-1.034-.852,3.165,3.165,0,0,1-.481-1.312,11.181,11.181,0,0,1-.115-1.679h-.093a19.172,19.172,0,0,1-1.589,2.049,7.874,7.874,0,0,1-1.794,1.494,8.211,8.211,0,0,1-2.253.919,12.229,12.229,0,0,1-3.013.322A11.986,11.986,0,0,1,12637.849-8064.212Zm10.465-12.488a10.544,10.544,0,0,1-1.379.319q-1.843.325-3.795.578a20.736,20.736,0,0,0-3.564.756,6.963,6.963,0,0,0-2.646,1.449,3.461,3.461,0,0,0-1.037,2.694,4.226,4.226,0,0,0,.438,1.953,4.725,4.725,0,0,0,1.174,1.471,5.088,5.088,0,0,0,1.7.944,6.253,6.253,0,0,0,1.979.323,9.963,9.963,0,0,0,3.176-.508,7.729,7.729,0,0,0,2.643-1.471,7.114,7.114,0,0,0,1.793-2.346,7.058,7.058,0,0,0,.667-3.127v-3.772h-.089A1.679,1.679,0,0,1,12648.313-8076.7Zm-36.593,12.258a6.431,6.431,0,0,1-2.575-1.771,7.165,7.165,0,0,1-1.449-2.809,14.081,14.081,0,0,1-.46-3.769V-8088.2h2.9v15.456a7.724,7.724,0,0,0,1.493,4.876q1.4,1.657,4.854,1.657a6.1,6.1,0,0,0,3.22-.808,6.854,6.854,0,0,0,2.209-2.138,9.613,9.613,0,0,0,1.286-3.058,14.971,14.971,0,0,0,.415-3.52V-8088.2h2.9v23.734h-2.668v-4.276h-.093a8.2,8.2,0,0,1-3.335,3.657,9.514,9.514,0,0,1-4.854,1.264A10.614,10.614,0,0,1,12611.721-8064.442Zm-54.646-.37a8.912,8.912,0,0,1-3.335-2.713,11.761,11.761,0,0,1-1.912-4,18.322,18.322,0,0,1-.619-4.806,17.372,17.372,0,0,1,.619-4.6,12.349,12.349,0,0,1,1.912-4.024,9.578,9.578,0,0,1,3.335-2.853,10.27,10.27,0,0,1,4.851-1.079,9.728,9.728,0,0,1,4.877,1.149,9.7,9.7,0,0,1,3.29,3.013,12.471,12.471,0,0,1,1.816,4.279,18.836,18.836,0,0,1,.459,4.9h-18.261a12.891,12.891,0,0,0,.438,3.243,8.88,8.88,0,0,0,1.4,3.013,8.025,8.025,0,0,0,2.436,2.208,6.845,6.845,0,0,0,3.542.875,7.05,7.05,0,0,0,4.97-1.657,8.7,8.7,0,0,0,2.482-4.417h2.9a11.568,11.568,0,0,1-3.38,6.255q-2.461,2.212-6.971,2.208A11.017,11.017,0,0,1,12557.074-8064.812Zm1.679-20.929a7.362,7.362,0,0,0-2.346,1.886,9.372,9.372,0,0,0-1.541,2.716,13.177,13.177,0,0,0-.76,3.15h15.363a10.379,10.379,0,0,0-.574-3.176,8.769,8.769,0,0,0-1.494-2.69,7.394,7.394,0,0,0-2.349-1.886,6.709,6.709,0,0,0-3.128-.712A6.8,6.8,0,0,0,12558.753-8085.741Zm-97.819,20.929a10.189,10.189,0,0,1-3.521-2.69,11.669,11.669,0,0,1-2.16-3.979,15.622,15.622,0,0,1-.737-4.851,15.654,15.654,0,0,1,.737-4.854,11.73,11.73,0,0,1,2.16-3.98,10.483,10.483,0,0,1,3.521-2.712,10.874,10.874,0,0,1,4.806-1.012,10.879,10.879,0,0,1,4.807,1.012,10.46,10.46,0,0,1,3.52,2.712,11.732,11.732,0,0,1,2.161,3.98,15.683,15.683,0,0,1,.737,4.854,15.651,15.651,0,0,1-.737,4.851,11.671,11.671,0,0,1-2.161,3.979,10.167,10.167,0,0,1-3.52,2.69,11.1,11.1,0,0,1-4.807.989A11.1,11.1,0,0,1,12460.934-8064.812Zm1.171-20.767a7.964,7.964,0,0,0-2.6,2.3,10.492,10.492,0,0,0-1.564,3.246,13.136,13.136,0,0,0-.529,3.7,13.153,13.153,0,0,0,.529,3.7,10.473,10.473,0,0,0,1.564,3.242,8.008,8.008,0,0,0,2.6,2.3,7.358,7.358,0,0,0,3.635.875,7.347,7.347,0,0,0,3.635-.875,7.972,7.972,0,0,0,2.6-2.3,10.428,10.428,0,0,0,1.563-3.242,13.118,13.118,0,0,0,.529-3.7,13.1,13.1,0,0,0-.529-3.7,10.446,10.446,0,0,0-1.563-3.246,7.928,7.928,0,0,0-2.6-2.3,7.311,7.311,0,0,0-3.635-.875A7.321,7.321,0,0,0,12462.1-8085.579Zm-44.274,19.78q-2.6-1.982-2.965-6.351h2.9a5.719,5.719,0,0,0,2.139,4.439,7.737,7.737,0,0,0,4.854,1.5,10.92,10.92,0,0,0,2.184-.23,7.055,7.055,0,0,0,2.094-.782,5.012,5.012,0,0,0,1.586-1.4,3.448,3.448,0,0,0,.622-2.094,3.337,3.337,0,0,0-.437-1.771,3.74,3.74,0,0,0-1.174-1.194,7.435,7.435,0,0,0-1.679-.807c-.629-.214-1.264-.4-1.909-.552l-3.724-.827a21.1,21.1,0,0,1-2.624-.852,8.4,8.4,0,0,1-2.093-1.2,4.975,4.975,0,0,1-1.4-1.746,5.774,5.774,0,0,1-.508-2.553,5.7,5.7,0,0,1,.8-3.083,6.308,6.308,0,0,1,2.094-2.071,9.8,9.8,0,0,1,2.875-1.149,13.91,13.91,0,0,1,3.15-.367,11.616,11.616,0,0,1,3.335.459,7.654,7.654,0,0,1,2.716,1.427,7.046,7.046,0,0,1,1.863,2.39,8.585,8.585,0,0,1,.779,3.357h-2.9a5.449,5.449,0,0,0-.549-2.32,4.677,4.677,0,0,0-1.359-1.634,5.668,5.668,0,0,0-1.953-.945,9.017,9.017,0,0,0-2.346-.3,9.39,9.39,0,0,0-1.956.208,5.988,5.988,0,0,0-1.816.689,3.9,3.9,0,0,0-1.334,1.264,3.487,3.487,0,0,0-.507,1.934,2.705,2.705,0,0,0,.484,1.631,4.245,4.245,0,0,0,1.217,1.126,7.567,7.567,0,0,0,1.611.76c.581.2,1.12.36,1.608.485l3.865.871a11.289,11.289,0,0,1,2.46.667,7.915,7.915,0,0,1,2.164,1.267,6.165,6.165,0,0,1,1.541,1.931,5.836,5.836,0,0,1,.6,2.716,5.93,5.93,0,0,1-.874,3.287,7.132,7.132,0,0,1-2.23,2.208,9.481,9.481,0,0,1-3.061,1.219,15.8,15.8,0,0,1-3.357.367A10.906,10.906,0,0,1,12417.83-8065.8Zm-23.138.986a8.935,8.935,0,0,1-3.335-2.713,11.791,11.791,0,0,1-1.908-4,18.159,18.159,0,0,1-.619-4.806,17.213,17.213,0,0,1,.619-4.6,12.381,12.381,0,0,1,1.908-4.024,9.6,9.6,0,0,1,3.335-2.853,10.3,10.3,0,0,1,4.854-1.079,9.727,9.727,0,0,1,4.876,1.149,9.687,9.687,0,0,1,3.287,3.013,12.475,12.475,0,0,1,1.819,4.279,18.794,18.794,0,0,1,.459,4.9h-18.264a12.933,12.933,0,0,0,.437,3.243,8.956,8.956,0,0,0,1.4,3.013,8.036,8.036,0,0,0,2.438,2.208,6.842,6.842,0,0,0,3.543.875,7.037,7.037,0,0,0,4.966-1.657,8.7,8.7,0,0,0,2.485-4.417h2.9a11.545,11.545,0,0,1-3.383,6.255q-2.461,2.212-6.967,2.208A11.047,11.047,0,0,1,12394.692-8064.812Zm1.679-20.929a7.426,7.426,0,0,0-2.346,1.886,9.4,9.4,0,0,0-1.542,2.716,13.364,13.364,0,0,0-.759,3.15h15.366a10.5,10.5,0,0,0-.577-3.176,8.649,8.649,0,0,0-1.494-2.69,7.426,7.426,0,0,0-2.346-1.886,6.707,6.707,0,0,0-3.127-.712A6.823,6.823,0,0,0,12396.371-8085.741Zm-44.871,21.529a7.037,7.037,0,0,1-2.531-1.242,5.923,5.923,0,0,1-1.7-2.164,7.191,7.191,0,0,1-.622-3.105,6.129,6.129,0,0,1,1.1-3.887,6.976,6.976,0,0,1,2.92-2.138,16.574,16.574,0,0,1,4.095-1.034q2.279-.3,4.624-.575.92-.1,1.608-.233a2.8,2.8,0,0,0,1.152-.482,2.231,2.231,0,0,0,.712-.941,4.071,4.071,0,0,0,.252-1.564,5.282,5.282,0,0,0-.481-2.416,3.84,3.84,0,0,0-1.334-1.5,5.4,5.4,0,0,0-1.979-.756,13.169,13.169,0,0,0-2.415-.208,7.309,7.309,0,0,0-4.507,1.312,5.131,5.131,0,0,0-1.842,4.206h-2.9a9.625,9.625,0,0,1,.875-3.587,6.816,6.816,0,0,1,2-2.483,8.419,8.419,0,0,1,2.968-1.427,14.43,14.43,0,0,1,3.772-.459,16.485,16.485,0,0,1,3.127.3,7.539,7.539,0,0,1,2.806,1.126,6.1,6.1,0,0,1,2.023,2.324,8.392,8.392,0,0,1,.781,3.884v12.606a1.527,1.527,0,0,0,1.705,1.749,2.278,2.278,0,0,0,.919-.185v2.438c-.339.061-.636.105-.9.137a8.421,8.421,0,0,1-.989.045,4.405,4.405,0,0,1-1.771-.3,2.4,2.4,0,0,1-1.034-.852,3.169,3.169,0,0,1-.485-1.312,11.311,11.311,0,0,1-.115-1.679h-.092a19.684,19.684,0,0,1-1.587,2.049,7.89,7.89,0,0,1-1.793,1.494,8.224,8.224,0,0,1-2.253.919,12.251,12.251,0,0,1-3.013.322A11.97,11.97,0,0,1,12351.5-8064.212Zm10.465-12.488a10.722,10.722,0,0,1-1.382.319q-1.838.325-3.795.578a20.8,20.8,0,0,0-3.564.756,6.965,6.965,0,0,0-2.643,1.449,3.447,3.447,0,0,0-1.037,2.694,4.237,4.237,0,0,0,.437,1.953,4.7,4.7,0,0,0,1.175,1.471,5.059,5.059,0,0,0,1.7.944,6.235,6.235,0,0,0,1.979.323,9.926,9.926,0,0,0,3.172-.508,7.743,7.743,0,0,0,2.646-1.471,7.157,7.157,0,0,0,1.794-2.346,7.058,7.058,0,0,0,.667-3.127v-3.772h-.093A1.662,1.662,0,0,1,12361.965-8076.7Zm-103.249,11.477a14.067,14.067,0,0,1-4.851-3.75,15.859,15.859,0,0,1-2.9-5.429,21.51,21.51,0,0,1-.968-6.485,21.534,21.534,0,0,1,.968-6.488,16.139,16.139,0,0,1,2.9-5.451,13.964,13.964,0,0,1,4.851-3.769,15.461,15.461,0,0,1,6.785-1.4,15.443,15.443,0,0,1,4.58.689,13.217,13.217,0,0,1,4.046,2.049,11.86,11.86,0,0,1,3.035,3.335,11.165,11.165,0,0,1,1.542,4.551h-3.128a10.5,10.5,0,0,0-1.356-3.379,9.251,9.251,0,0,0-2.3-2.505,10.156,10.156,0,0,0-2.99-1.542,11.011,11.011,0,0,0-3.428-.53,11.855,11.855,0,0,0-5.61,1.242,11.16,11.16,0,0,0-3.843,3.29,14.184,14.184,0,0,0-2.208,4.621,19.738,19.738,0,0,0-.712,5.292,19.806,19.806,0,0,0,.712,5.266,14.194,14.194,0,0,0,2.208,4.647,11.121,11.121,0,0,0,3.843,3.287,11.82,11.82,0,0,0,5.61,1.245,9.974,9.974,0,0,0,4.14-.83,9.8,9.8,0,0,0,3.175-2.253,11.476,11.476,0,0,0,2.161-3.335,13.831,13.831,0,0,0,1.06-4.117h3.127a17.688,17.688,0,0,1-1.426,5.473,13.365,13.365,0,0,1-2.851,4.139,12.08,12.08,0,0,1-4.117,2.624,14.454,14.454,0,0,1-5.269.919A15.509,15.509,0,0,1,12258.716-8065.224Zm426.168-.141q-1.148-1.125-1.1-4.162v-16.238h-4.139v-2.438h4.139v-7.13h2.9v7.13h4.831v2.438h-4.831v16.008a5.176,5.176,0,0,0,.393,2.23q.391.8,1.953.9a22.43,22.43,0,0,0,2.485-.137v2.438c-.431,0-.858.016-1.289.045s-.858.048-1.289.048Q12686.035-8064.234,12684.884-8065.364Zm-307.971,0q-1.148-1.125-1.1-4.162v-16.238h-4.139v-2.438h4.139v-7.13h2.9v7.13h4.831v2.438h-4.831v16.008a5.192,5.192,0,0,0,.392,2.23q.393.8,1.953.9a22.435,22.435,0,0,0,2.486-.137v2.438c-.431,0-.858.016-1.289.045s-.858.048-1.286.048Q12378.063-8064.234,12376.913-8065.364Zm294.4.9V-8088.2h2.9v23.734Zm-10.809,0v-32.843h2.9v32.843Zm-118.771,0v-14.812a13.608,13.608,0,0,0-.278-2.828,6.016,6.016,0,0,0-.963-2.278,4.72,4.72,0,0,0-1.864-1.516,6.817,6.817,0,0,0-2.923-.552,7.431,7.431,0,0,0-3.105.619,6.74,6.74,0,0,0-2.3,1.7,7.818,7.818,0,0,0-1.472,2.576,10.48,10.48,0,0,0-.577,3.243v13.844h-2.9V-8088.2h2.9v4.094h.093a6.932,6.932,0,0,1,2.945-3.472,8.64,8.64,0,0,1,4.644-1.312,11.686,11.686,0,0,1,4.165.645,6.549,6.549,0,0,1,2.689,1.816,6.754,6.754,0,0,1,1.427,2.875,16.041,16.041,0,0,1,.415,3.817v15.271Zm-28.062,0v-32.843h3.128v32.843Zm-28.519,0v-21.3h-4.05v-2.438h4.05v-2.161a15.99,15.99,0,0,1,.23-2.809,5.476,5.476,0,0,1,.874-2.208,4.172,4.172,0,0,1,1.771-1.423,7.02,7.02,0,0,1,2.875-.507c.428,0,.827.016,1.194.048s.781.077,1.241.137v2.483c-.4-.061-.767-.115-1.1-.16a7.222,7.222,0,0,0-1.015-.07,3.779,3.779,0,0,0-1.838.367,2.276,2.276,0,0,0-.945.989,3.873,3.873,0,0,0-.345,1.449c-.028.552-.044,1.152-.044,1.794v2.071h4.691v2.438h-4.691v21.3Zm-147.937,0v-15.96a7.019,7.019,0,0,0-1.241-4.484q-1.239-1.541-4.369-1.542a6.208,6.208,0,0,0-3.128.712,5.494,5.494,0,0,0-1.979,1.908,8.1,8.1,0,0,0-1.034,2.738,16.693,16.693,0,0,0-.3,3.2v13.43h-2.9v-16.1a9.913,9.913,0,0,0-.256-2.279,5.208,5.208,0,0,0-.826-1.886,3.919,3.919,0,0,0-1.541-1.264,5.439,5.439,0,0,0-2.346-.459,7.156,7.156,0,0,0-3.2.667,5.886,5.886,0,0,0-2.208,1.838,8.227,8.227,0,0,0-1.264,2.761,13.767,13.767,0,0,0-.415,3.472v13.248h-2.895V-8088.2h2.664v4h.141a9.064,9.064,0,0,1,3.013-3.45,8.4,8.4,0,0,1,4.759-1.241,8.093,8.093,0,0,1,4.257,1.149,5.634,5.634,0,0,1,2.554,3.5,7.275,7.275,0,0,1,3.127-3.5,8.952,8.952,0,0,1,4.417-1.149q7.866,0,7.864,8.326v16.1Zm-40.665,0V-8088.2h2.9v23.734Zm-10.809,0v-32.843h2.9v32.843Zm385.572-28.2v-4.646h2.9v4.646Zm-374.764,0v-4.646h2.9v4.646Z" transform="translate(-12249.5 8098.5)" fill="#1d2224" stroke="rgba(0,0,0,0)" stroke-miterlimit="10" stroke-width="1"/>
</svg>
