<svg xmlns="http://www.w3.org/2000/svg" width="31.308" height="31.308" viewBox="0 0 31.308 31.308">
  <g id="noun_instagram_3350818">
    <path id="Path_451" data-name="Path 451" d="M26.664,0H4.644A4.657,4.657,0,0,0,0,4.644v22.02a4.657,4.657,0,0,0,4.644,4.644h22.02a4.657,4.657,0,0,0,4.644-4.644V4.644A4.657,4.657,0,0,0,26.664,0ZM28.7,26.664A2.035,2.035,0,0,1,26.664,28.7H4.644a2.035,2.035,0,0,1-2.035-2.035V4.644A2.035,2.035,0,0,1,4.644,2.609h22.02A2.035,2.035,0,0,1,28.7,4.644Z" fill="#ffffff"/>
    <path id="Path_452" data-name="Path 452" d="M13.809,6a7.809,7.809,0,1,0,7.809,7.809A7.809,7.809,0,0,0,13.809,6Zm0,13.015a5.206,5.206,0,1,1,5.206-5.206A5.206,5.206,0,0,1,13.809,19.015Z" transform="translate(1.845 1.845)" fill="#ffffff"/>
    <circle id="Ellipse_29" data-name="Ellipse 29" cx="2.192" cy="2.192" r="2.192" transform="translate(21.858 4.996)" fill="#ffffff"/>
  </g>
</svg>
