<svg xmlns="http://www.w3.org/2000/svg" width="31.308" height="31.308" viewBox="0 0 31.308 31.308">
  <path id="Twitter_Social_Icon_Rounded_Square_White" d="M27.394,31.308H3.913A3.915,3.915,0,0,1,0,27.394V3.913A3.915,3.915,0,0,1,3.913,0H27.394a3.915,3.915,0,0,1,3.913,3.913V27.394A3.915,3.915,0,0,1,27.394,31.308Zm-15.372-7.7A11.346,11.346,0,0,0,23.442,12.186c0-.172,0-.344-.008-.517a8.177,8.177,0,0,0,2-2.082,8.134,8.134,0,0,1-2.309.634A4.038,4.038,0,0,0,24.9,8a7.983,7.983,0,0,1-2.552.971A4.015,4.015,0,0,0,15.4,11.717a4.436,4.436,0,0,0,.1.916,11.4,11.4,0,0,1-8.273-4.2A4.03,4.03,0,0,0,8.477,13.8a4.06,4.06,0,0,1-1.816-.5v.055A4.022,4.022,0,0,0,9.878,17.29a4.037,4.037,0,0,1-1.808.07,4.013,4.013,0,0,0,3.749,2.786,8.05,8.05,0,0,1-4.986,1.722,7.723,7.723,0,0,1-.955-.055,11.417,11.417,0,0,0,6.144,1.792" fill="#1d2224"/>
</svg>
