<svg xmlns="http://www.w3.org/2000/svg" width="26" height="25.366" viewBox="0 0 26 25.366">
  <g id="Group_242" data-name="Group 242" transform="translate(-1552.558 -1798.628)">
    <g id="Group" transform="translate(1552.33 1799)">
      <g id="Group_243" data-name="Group 243">
        <path id="Compound_Path" data-name="Compound Path" d="M16.046,12.31v2.761H11.33V36.676h25V15.071H31.614V12.31h-.646v2.761H24.153V12.31h-.646v2.761H16.693V12.31Zm-4.07,23.72V21.568H35.683V36.03Zm11.53-20.313v2.761h.646V15.717h6.814v2.761h.646V15.717h4.07v5.2H11.976v-5.2h4.07v2.761h.646V15.717Z" transform="translate(-10.602 -12.183)" fill="#0097e2" stroke="#0097e2" stroke-width="1"/>
        <path id="Path" d="M41.6,50.79h-.629v3.685H37.29V55.1h3.685V58.79H41.6V55.1H45.29v-.629H41.6Z" transform="translate(-28.062 -38.163)" fill="#0097e2" stroke="#0097e2" stroke-width="1"/>
      </g>
    </g>
  </g>
</svg>
