<svg width="297" height="297" viewBox="0 0 297 297" fill="none" xmlns="http://www.w3.org/2000/svg">
<path d="M132.979 120.484C130.426 120.048 127.979 121.777 127.546 124.341C127.442 124.945 124.857 147.868 120.249 163.546C119.513 166.045 120.941 168.666 123.441 169.398C123.885 169.531 124.329 169.594 124.773 169.594C126.811 169.594 128.687 168.262 129.293 166.206C134.06 149.999 136.418 128.412 136.841 125.92C137.275 123.351 135.545 120.919 132.979 120.484Z" fill="#2A67B1"/>
<path d="M206.306 198.231C211.737 193.949 214.49 186.949 214.49 177.417C214.498 159.753 202.14 149.513 193.756 145.586C192.205 136.518 186.811 105.634 181.465 84.2417C175.708 61.2024 165 50 148.747 50C132.494 50 121.79 61.2024 116.03 84.2447C110.682 105.634 105.283 136.517 103.741 145.591C95.3559 149.515 83 159.748 83 177.417C83 186.949 85.7526 193.949 91.1843 198.231C98.437 203.949 107.872 202.806 112.845 201.604C119.549 199.998 124.476 203.494 130.186 207.54C135.349 211.191 141.197 215.336 148.746 215.336C156.296 215.336 162.143 211.19 167.301 207.54C173.017 203.494 177.946 199.998 184.647 201.604C189.619 202.8 199.053 203.95 206.306 198.231ZM181.954 186.778C171.517 186.778 166.773 203.226 148.749 203.226C130.721 203.226 125.981 186.778 115.544 186.778C106.446 186.778 102.394 191.588 101.509 192.818C99.9131 192.487 98.353 191.873 97.0255 190.826C93.9744 188.422 92.4293 183.913 92.4293 177.416C92.4293 159.649 108.807 153.655 109.486 153.415C111.123 152.848 112.323 151.433 112.604 149.726C112.667 149.342 118.968 111.354 125.172 86.5337C131.245 62.2404 141.537 59.4308 148.746 59.4308C155.955 59.4308 166.247 62.2404 172.316 86.5337C178.517 111.354 184.825 149.339 184.888 149.726C185.164 151.418 186.364 152.833 187.986 153.403C188.685 153.652 205.061 159.649 205.061 177.416C205.067 183.913 203.522 188.423 200.471 190.826C199.143 191.878 197.589 192.482 195.99 192.818C195.1 191.582 191.05 186.778 181.954 186.778Z" fill="#2A67B1"/>
<path d="M127.33 219.315L127.103 219.252C126.728 219.152 126.306 219.095 125.885 219.095C123.711 219.095 121.796 220.564 121.229 222.664L117.077 241.101C116.387 243.663 117.881 246.258 120.483 246.981C120.9 247.092 121.322 247.146 121.742 247.146C123.918 247.146 125.834 245.679 126.398 243.579L130.55 225.14C131.222 222.664 129.811 220.093 127.33 219.315Z" fill="#2A67B1"/>
<path d="M112.328 215.057C111.69 214.749 110.973 214.587 110.256 214.587C108.405 214.587 106.696 215.663 105.904 217.328C104.553 220.155 98.5465 229.909 94.5519 232.919C93.5214 233.698 92.8568 234.827 92.6783 236.104C92.4998 237.379 92.8298 238.645 93.6054 239.671C94.5219 240.891 95.9259 241.591 97.4545 241.591C98.5075 241.591 99.5111 241.255 100.354 240.621C106.771 235.784 113.825 223.118 114.603 221.484C115.158 220.323 115.229 219.014 114.798 217.8C114.368 216.585 113.49 215.612 112.328 215.057Z" fill="#2A67B1"/>
<path d="M179.851 222.694C179.276 220.562 177.362 219.095 175.19 219.095C174.769 219.095 174.347 219.152 173.938 219.261L173.734 219.32C171.269 220.091 169.859 222.664 170.535 225.17L174.673 243.547C175.243 245.679 177.157 247.144 179.333 247.144C179.755 247.144 180.176 247.089 180.584 246.981C183.196 246.259 184.687 243.661 183.988 241.069L179.851 222.694Z" fill="#2A67B1"/>
<path d="M206.526 231.419C202.578 228.445 196.57 220.253 195.172 217.326C194.38 215.663 192.672 214.587 190.819 214.587C190.105 214.587 189.387 214.749 188.745 215.058C187.585 215.612 186.708 216.585 186.279 217.799C185.85 219.012 185.92 220.322 186.475 221.484C187.2 223.013 194.206 234.206 200.724 239.117C201.567 239.754 202.569 240.088 203.622 240.088C205.151 240.088 206.555 239.388 207.474 238.168C209.073 236.048 208.649 233.021 206.526 231.419Z" fill="#2A67B1"/>
</svg>
