<svg width="297" height="297" viewBox="0 0 297 297" fill="none" xmlns="http://www.w3.org/2000/svg">
<path d="M227.777 88.7114C226.928 87.2984 225.41 86.4539 223.764 86.4539C223.656 86.4539 212.936 86.3954 207.327 81.786C201.951 77.3625 183.303 62.7075 169.631 60.324C168.419 60.108 167.13 60 165.782 60C156.993 60 146.72 64.563 142.233 66.7755C137.748 64.563 127.472 60 118.682 60C117.333 60 116.039 60.108 114.83 60.324C102.849 62.412 86.087 74.643 77.1785 81.7364C72.599 85.3799 63.6275 86.3759 60.572 86.4524C58.9596 86.4839 57.4716 87.3599 56.6406 88.7564C55.8276 90.1409 55.7796 91.8569 56.5475 93.3044C57.5 95.1029 76.0565 129.453 112.478 142.813C115.797 160.477 121.647 178.653 131.942 188.221C142.986 198.484 155.015 201.474 165.278 201.474C174.429 201.474 182.225 199.098 186.69 197.341C193.557 194.653 202.571 188.082 205.443 178.374C206.814 173.746 207.24 166.561 201.524 158.619C197.469 152.982 191.849 145.165 187.04 135.624C213.539 119.959 227.103 94.8239 227.916 93.3029C228.683 91.8449 228.624 90.1094 227.777 88.7114ZM193.955 164.07C196.797 168.049 197.627 171.859 196.491 175.728C194.711 181.75 188.397 186.652 183.297 188.644C175.434 191.716 155.31 197.172 138.303 181.384C131.607 175.177 126.276 163.012 122.619 145.852C121.914 142.624 121.299 139.212 120.728 135.619C120.56 134.56 120.389 133.497 120.236 132.408C119.729 128.872 119.313 125.419 118.979 122.136C118.563 118.198 118.272 114.511 118.055 111.243C117.642 105.019 117.518 100.243 117.486 98.0339C121.497 98.5394 125.55 100.125 129.485 101.658C132.327 102.748 135.045 103.809 137.703 104.439C137.918 109.398 138.38 114.022 138.992 118.356C139.469 121.707 140.052 124.854 140.729 127.831C141.605 131.782 142.62 135.403 143.727 138.72C144.848 142.101 146.063 145.176 147.288 147.924C153.401 161.565 160.211 167.799 160.7 168.249C161.591 169.042 162.713 169.428 163.823 169.428C165.093 169.428 166.382 168.907 167.307 167.865C169.011 165.942 168.84 162.997 166.923 161.274C166.83 161.181 161.988 156.741 157.074 146.806C155.799 144.223 154.526 141.273 153.326 137.926C152.175 134.701 151.082 131.086 150.147 127.113C149.475 124.254 148.875 121.198 148.397 117.942C147.749 113.763 147.291 109.249 147.045 104.379C149.61 103.731 152.238 102.723 154.976 101.661C159.245 100.003 163.626 98.2994 167.939 97.9439C167.955 102.045 168.288 106.024 168.89 109.879C169.364 113.17 170.058 116.367 170.891 119.451C171.993 123.612 173.375 127.594 174.917 131.371C176.129 134.367 177.465 137.236 178.833 139.972C184.013 150.246 189.944 158.497 193.955 164.07ZM108.144 98.2784C108.161 99.7694 108.224 102.181 108.36 105.298C105.351 103.242 102.645 101.197 100.401 99.4169C102.813 98.9864 105.488 98.5739 108.144 98.2784ZM184.044 99.4184C182.189 100.909 180.005 102.567 177.581 104.271C177.393 102.348 177.285 100.38 177.285 98.4029C179.619 98.6789 181.94 99.0464 184.044 99.4184ZM183.123 126.927C181.572 122.995 180.219 118.834 179.22 114.483C189.636 107.662 196.917 100.69 197.501 100.123C198.729 98.9564 199.205 97.2029 198.756 95.5589C198.324 93.9314 197.036 92.6549 195.396 92.2424C194.844 92.1029 183.348 89.2484 173.181 88.6484L173.016 88.6319H172.784C171.692 88.5554 170.619 88.5239 169.572 88.5239C162.981 88.5239 156.929 90.8729 151.601 92.9489C147.957 94.3619 144.521 95.6804 142.23 95.6804H142.134C139.83 95.6534 136.454 94.3484 132.858 92.9489C127.514 90.8759 121.46 88.5239 114.885 88.5239C104.057 88.5239 89.678 92.0879 89.0645 92.2424C87.4205 92.6549 86.129 93.9344 85.6835 95.5589C85.253 97.2029 85.7315 98.9579 86.9435 100.123C87.6035 100.767 96.62 109.416 109.064 116.877C109.448 121.437 109.968 126.537 110.693 131.872C89.048 122.056 74.84 104.221 68.5415 94.9244C73.1045 94.0799 78.7865 92.3909 82.994 89.0429C96.974 77.892 109.17 70.779 116.438 69.519C117.114 69.396 117.866 69.3315 118.679 69.3315C127.622 69.3315 139.847 76.047 139.971 76.107C141.371 76.8885 143.09 76.8885 144.483 76.107C147.882 74.2155 158.327 69.3315 165.779 69.3315C166.59 69.3315 167.342 69.396 168.023 69.519C177.116 71.1 191.691 80.9925 201.399 88.9964C205.668 92.4959 211.308 94.1894 215.868 95.0189C210.528 102.934 199.529 116.914 183.123 126.927Z" fill="#2A67B1"/>
<path d="M190.331 227.863C187.298 225.193 185.772 217.156 185.378 214.756C185.348 214.578 185.322 214.479 185.318 214.467C184.664 212.419 182.768 211.035 180.605 211.035C180.105 211.035 179.607 211.111 179.129 211.261C177.867 211.657 176.835 212.52 176.222 213.691C175.61 214.863 175.491 216.202 175.886 217.464L175.92 217.65C176.865 222.481 179.144 231.199 183.791 235.291C184.694 236.088 185.855 236.527 187.059 236.527C188.483 236.527 189.837 235.915 190.776 234.849C191.651 233.857 192.086 232.584 192.002 231.264C191.918 229.945 191.324 228.738 190.331 227.863Z" fill="#2A67B1"/>
<path d="M131.75 202.705C130.808 201.612 129.44 200.983 127.997 200.983C126.813 200.983 125.667 201.409 124.77 202.182C123.987 202.855 118.532 216.213 116.516 223.837C116.177 225.115 116.358 226.449 117.021 227.59C117.686 228.733 118.755 229.549 120.033 229.887C120.45 229.998 120.878 230.053 121.302 230.053C123.548 230.053 125.514 228.537 126.084 226.366C127.485 221.074 130.928 210.771 131.423 209.509C133.302 207.736 133.469 204.702 131.75 202.705Z" fill="#2A67B1"/>
<path d="M220.631 219.204C220.173 217.963 219.261 216.976 218.06 216.421C215.751 215.356 212.328 210.538 208.904 203.533C208.793 203.307 208.773 203.266 208.692 203.181C207.744 202.204 206.483 201.67 205.131 201.67C203.84 201.67 202.616 202.165 201.689 203.062C199.745 204.945 199.677 208.045 201.522 210.009C201.573 210.094 201.666 210.264 201.797 210.502C206.39 218.805 210.464 223.821 213.909 225.411C214.566 225.712 215.262 225.865 215.979 225.865C217.905 225.865 219.671 224.737 220.476 222.99C221.033 221.79 221.088 220.444 220.631 219.204Z" fill="#2A67B1"/>
<path d="M156.549 216.036C157.517 213.568 156.335 210.735 153.872 209.688C153.251 209.425 152.6 209.293 151.934 209.293C149.943 209.293 148.157 210.477 147.38 212.308C147.014 213.157 146.402 225.087 146.882 232.806C147.044 235.41 149.213 237.45 151.818 237.45L152.144 237.438C153.452 237.357 154.661 236.766 155.537 235.774C156.411 234.783 156.849 233.511 156.767 232.191C156.414 226.542 156.498 217.161 156.549 216.036Z" fill="#2A67B1"/>
<path d="M235.776 192.768C233.36 192.487 227.952 189.118 221.309 183.756C221.129 183.61 221.024 183.534 221.012 183.526C220.232 183.04 219.33 182.782 218.408 182.782C216.687 182.782 215.115 183.651 214.203 185.104C212.757 187.417 213.461 190.479 215.772 191.926C215.78 191.934 215.877 192.009 216.026 192.126C220.722 195.777 229.386 201.993 234.638 202.6C234.828 202.623 235.022 202.633 235.211 202.633C237.725 202.633 239.837 200.749 240.122 198.252C240.437 195.543 238.487 193.081 235.776 192.768Z" fill="#2A67B1"/>
</svg>
