<svg width="297" height="297" viewBox="0 0 297 297" fill="none" xmlns="http://www.w3.org/2000/svg">
<path d="M232.902 164.64C204.362 138.688 175.134 125.524 146.07 125.524C96.364 125.524 65.3254 163.554 64.037 165.184C62.5175 167.068 62.69 169.803 64.409 171.495C89.2002 195.838 116.549 208.154 145.692 208.154C195.054 208.154 231.504 172.999 233.023 171.495C233.956 170.58 234.468 169.339 234.433 168.036C234.421 166.749 233.865 165.508 232.902 164.64ZM217.572 172.14C204.374 182.126 177.624 198.732 145.695 198.732C122.406 198.732 100.232 189.967 79.656 172.633C76.6291 170.085 76.5736 165.429 79.494 162.759C91.1547 152.094 114.764 134.951 146.065 134.951C169.781 134.951 193.833 144.721 217.689 164.009C220.293 166.113 220.244 170.119 217.572 172.14Z" fill="#2A67B1"/>
<path d="M69.6738 120.859C72.6017 123.135 78.1816 130.871 81.012 135.214C81.9149 136.603 83.4239 137.357 84.9644 137.357C85.8463 137.357 86.7388 137.11 87.5323 136.589C89.7147 135.172 90.3312 132.25 88.9107 130.069C88.0723 128.785 80.5875 117.408 75.4606 113.418C73.4072 111.819 70.4478 112.191 68.8473 114.246C67.2499 116.299 67.6204 119.262 69.6738 120.859Z" fill="#2A67B1"/>
<path d="M108.488 118.771C108.964 120.358 110.203 121.504 111.682 121.936C112.526 122.183 113.453 122.197 114.362 121.919C116.853 121.169 118.265 118.54 117.513 116.047C117.069 114.579 113.078 101.559 109.277 96.2912C107.753 94.1807 104.809 93.7083 102.695 95.2307C100.588 96.7547 100.111 99.7006 101.635 101.811C103.807 104.817 106.991 113.809 108.488 118.771Z" fill="#2A67B1"/>
<path d="M147.484 116.875L147.677 116.874C150.278 116.769 152.302 114.574 152.197 111.973L151.453 93.5224C151.348 90.9199 149.197 88.9115 146.552 89.003C143.953 89.108 141.93 91.3024 142.033 93.9019L142.777 112.353C142.879 114.889 144.967 116.875 147.484 116.875Z" fill="#2A67B1"/>
<path d="M207.34 136.893C207.995 137.208 208.685 137.357 209.369 137.357C211.129 137.357 212.815 136.368 213.623 134.677C215.253 131.266 220.532 121.63 225.287 118.045C227.366 116.479 227.78 113.524 226.214 111.445C224.648 109.366 221.693 108.949 219.614 110.518C212.17 116.13 205.819 129.146 205.118 130.613C203.996 132.961 204.991 135.773 207.34 136.893Z" fill="#2A67B1"/>
<path d="M180.163 124.783C180.874 124.937 181.581 124.922 182.244 124.765C183.957 124.358 185.368 123.005 185.764 121.172C186.561 117.478 189.469 106.882 193.264 102.294C194.923 100.289 194.644 97.3187 192.639 95.6582C190.636 93.9993 187.665 94.2753 186.003 96.2837C180.058 103.465 176.892 117.598 176.549 119.187C176.001 121.73 177.62 124.237 180.163 124.783Z" fill="#2A67B1"/>
<path d="M143.079 138.318C129.666 139.656 118.824 150.511 117.498 163.926C115.706 182.055 130.833 197.165 148.957 195.36C162.368 194.025 173.214 183.173 174.54 169.762C176.331 151.632 161.204 136.511 143.079 138.318ZM145.293 186.06C140.542 186.06 136.201 184.328 132.847 181.472C132.222 181.258 131.658 180.911 131.199 180.455C130.696 179.962 130.335 179.327 130.131 178.625C127.596 175.369 126.072 171.287 126.072 166.84C126.072 156.225 134.677 147.62 145.293 147.62C155.908 147.62 164.513 156.225 164.513 166.84C164.513 177.455 155.908 186.06 145.293 186.06Z" fill="#2A67B1"/>
</svg>
