<svg width="297" height="297" viewBox="0 0 297 297" fill="none" xmlns="http://www.w3.org/2000/svg">
<path d="M182.287 163.844C183.329 162.708 184.906 162.108 186.541 162.383C191.651 163.238 201.124 164.367 204.78 163.751C207.346 163.32 209.778 165.053 210.21 167.618C210.639 170.187 208.909 172.617 206.343 173.048C199.937 174.123 186.495 171.933 184.984 171.68C182.416 171.249 180.683 168.819 181.115 166.253C181.268 165.315 181.691 164.492 182.287 163.844Z" fill="#2A67B1"/>
<path d="M173.587 182.499C174.836 180.316 177.599 179.491 179.851 180.663L196.232 189.187C198.539 190.39 199.437 193.235 198.237 195.542C197.001 197.884 194.19 198.751 191.88 197.549L175.499 189.025C173.189 187.824 172.291 184.978 173.492 182.668L173.587 182.499Z" fill="#2A67B1"/>
<path d="M160.926 199.822C161.143 199.175 161.503 198.568 162.01 198.047C163.821 196.177 166.804 196.131 168.672 197.941C169.837 199.072 180.155 209.236 183.104 218.079C183.931 220.551 182.593 223.22 180.125 224.042C177.656 224.867 174.988 223.532 174.164 221.063C172.279 215.414 164.824 207.343 162.112 204.712C160.764 203.405 160.365 201.491 160.926 199.822Z" fill="#2A67B1"/>
<path d="M187.899 102.349C178.799 80.7228 157.651 66.4448 131.314 64.1633C107.934 62.1324 91.0957 79.3878 87.1464 96.6432C82.7425 115.85 92.4172 137.061 92.8357 137.941C93.6082 139.603 95.2071 140.593 96.9275 140.659C97.655 140.706 98.399 140.566 99.0965 140.239C101.453 139.159 102.476 136.345 101.391 133.989C101.3 133.804 92.6632 114.767 96.3366 98.7522C98.957 87.2805 111.297 71.8851 130.507 73.5425C153.278 75.5269 171.498 87.651 179.201 106.007C184.922 119.601 183.329 133.834 174.908 144.055C152.181 171.663 144.227 188.826 135.002 208.689C128.182 223.417 117.561 223.896 109.871 221.697C107.777 221.028 93.8242 209.96 99.7025 187.11C100.353 184.578 98.8355 182.005 96.3066 181.354C95.9811 181.279 95.6421 181.231 95.3151 181.231C93.1462 181.138 91.1287 182.565 90.5708 184.753C83.623 211.742 99.7024 228.597 107.267 230.749C109.518 231.4 112.739 232.068 116.461 232.068C125.049 232.068 136.211 228.489 143.561 212.658C152.505 193.375 160.224 176.739 182.195 150.038C192.866 137.074 195.002 119.247 187.899 102.349Z" fill="#2A67B1"/>
<path d="M156.555 147.2C157.251 147.569 158.013 147.757 158.755 147.757C160.449 147.757 162.075 146.843 162.927 145.243C163.33 144.486 172.675 126.546 166.783 109.322C163.54 99.8035 156.399 92.5003 145.577 87.603C131.764 81.3542 116.583 85.122 108.642 96.7661C97.0176 113.804 107.559 134.16 120.115 146.405C121.975 148.225 124.966 148.19 126.78 146.332C128.593 144.472 128.563 141.481 126.706 139.668C119.619 132.756 115.728 126.132 114.084 120.21C121.291 122.118 131.555 126.011 134.948 132.15C136.421 134.83 136.421 137.698 134.935 141.202C130.189 152.378 124.189 159.664 119.724 163.976C118.083 162.084 115.678 160.908 112.98 160.908C108.051 160.908 104.034 164.907 104.034 169.856C104.034 174.802 108.051 178.815 112.98 178.815C114.795 178.815 116.484 178.269 117.895 177.33L118.05 177.237C119.77 176.262 134.002 167.516 143.613 144.885C146.219 138.777 146.063 132.79 143.178 127.584C142.432 126.236 135.475 114.746 113.304 110.311C113.739 107.152 114.855 104.374 116.421 102.095C121.816 94.1742 131.971 91.8163 141.673 96.2037C150.015 99.9715 155.454 105.398 157.838 112.327C158.878 115.351 159.283 118.479 159.283 121.488C159.283 131.718 154.646 140.725 154.586 140.851C153.378 143.142 154.26 145.976 156.555 147.2Z" fill="#2A67B1"/>
</svg>
