<svg width="297" height="297" viewBox="0 0 297 297" fill="none" xmlns="http://www.w3.org/2000/svg">
<path d="M206.832 181.776C205.895 176.54 199.834 153.359 194.443 146.931C191.232 143.105 186.724 142.448 182.578 143.522C180.929 139.125 178.87 135.309 176.37 133.047C173.589 130.527 170.831 130.218 169.011 130.399C166.452 130.654 164.328 131.286 162.568 132.063C160.284 125.066 157.192 121.333 153.008 120.344C149.194 119.443 145.976 119.903 143.324 121.061C143.3 119.605 143.268 118.155 143.252 116.693C143.031 97.927 142.782 76.6591 125.751 76.6591C121.118 76.6591 117.191 78.3466 114.395 81.5388C107.831 89.0376 108.68 103.233 110.577 117.461C111.12 121.532 111.255 129.267 111.167 138.366C110.999 138.247 110.831 138.132 110.673 138.028C106.758 135.466 102.133 134.604 98.6098 135.778C95.9111 136.678 93.8305 138.517 92.59 141.098C90.8244 144.777 90.9384 149.571 92.9245 154.963C94.7606 159.95 95.6411 186.517 95.0456 203.964C94.4801 220.625 108.726 240.446 119.491 253.901C120.422 255.065 121.79 255.67 123.175 255.67C124.207 255.67 125.245 255.334 126.115 254.642C128.148 253.015 128.479 250.049 126.852 248.015C111.654 229.023 104.123 214.308 104.466 204.291C104.829 193.672 104.865 160.117 101.766 151.709C100.545 148.391 100.633 146.12 101.083 145.184C101.227 144.888 101.362 144.803 101.578 144.729C101.994 144.609 103.748 144.702 105.69 146.037C107.691 147.417 110.192 150.297 110.727 156.175C110.736 156.269 110.766 156.355 110.78 156.446C110.171 176.585 109.097 196.455 109.076 196.812C108.933 199.411 110.925 201.628 113.525 201.775L113.784 201.78C116.272 201.78 118.349 199.836 118.484 197.328C118.631 194.668 122.017 131.968 119.917 116.216C119.074 109.884 116.83 93.0668 121.484 87.7506C122.161 86.975 123.26 86.087 125.746 86.087C132.907 86.087 133.611 98.8196 133.822 116.807C133.851 119.338 133.882 121.873 133.947 124.366C134.46 144.251 135.672 158.26 135.686 158.401C135.914 160.993 138.203 162.913 140.793 162.682C143.385 162.454 145.302 160.169 145.077 157.577C145.07 157.462 144.233 147.77 143.664 133.086C144.528 131.394 146.636 128.525 150.719 129.477C153.263 130.861 157.162 144.849 157.711 164.487C157.78 167.043 159.877 169.068 162.42 169.068L162.558 169.072C165.159 168.996 167.206 166.828 167.137 164.232C167.125 163.833 166.852 154.531 165.385 144.782C165.216 143.655 165.036 142.583 164.85 141.539C165.804 140.87 167.382 140.066 169.766 139.796C171.345 140.616 173.424 145.154 175.143 150.923C175.17 151.051 175.218 151.175 175.256 151.301C177.015 157.315 178.37 164.586 178.37 170.38C178.37 172.982 180.481 175.095 183.083 175.095C185.686 175.095 187.798 172.983 187.798 170.38C187.798 166.824 186.991 159.764 185.287 152.584C186.047 152.425 186.781 152.464 187.219 152.987C190.309 156.671 196.258 176.189 197.557 183.44C198.265 187.393 196.564 195.882 194.917 204.092C194.214 207.593 193.489 211.215 192.898 214.707C190.882 226.641 186.545 245.133 186.5 245.321C185.906 247.852 187.475 250.39 190.011 250.985C190.372 251.069 190.735 251.111 191.094 251.111C193.233 251.111 195.169 249.644 195.681 247.475C195.861 246.707 200.133 228.51 202.197 216.277C202.764 212.924 203.475 209.378 204.164 205.944C206.147 196.041 207.86 187.492 206.832 181.776Z" fill="#2A67B1"/>
<path d="M102.159 70.4426C103.062 71.8317 104.571 72.5862 106.112 72.5862C106.992 72.5862 107.885 72.3387 108.68 71.8182C110.862 70.3991 111.479 67.4785 110.057 65.2959C109.218 64.0118 101.733 52.6338 96.6071 48.6436C94.552 47.046 91.5924 47.418 89.9918 49.4716C88.3957 51.5252 88.7648 54.4879 90.8199 56.0854C93.7495 58.3641 99.3297 66.1014 102.159 70.4426Z" fill="#2A67B1"/>
<path d="M124.268 69.8787L124.462 69.8772C127.063 69.7707 129.087 67.5776 128.982 64.975L128.238 46.5226C128.131 43.9215 125.982 41.9129 123.335 42.0029C120.737 42.1079 118.712 44.3025 118.816 46.9021L119.56 65.3545C119.665 67.8926 121.754 69.8787 124.268 69.8787Z" fill="#2A67B1"/>
<path d="M137.573 74.3266C138.228 74.6401 138.918 74.7901 139.601 74.7901C141.36 74.7901 143.046 73.8016 143.856 72.1095C145.485 68.6998 150.766 59.0619 155.521 55.4767C157.6 53.9091 158.014 50.954 156.446 48.8764C154.882 46.7973 151.927 46.3803 149.848 47.9494C142.403 53.5611 136.051 66.5787 135.351 68.0443C134.229 70.3934 135.223 73.2061 137.573 74.3266Z" fill="#2A67B1"/>
</svg>
